<?xml version="1.0" encoding="utf-8"?>
<!-- Generator: Adobe Illustrator 19.0.0, SVG Export Plug-In . SVG Version: 6.00 Build 0)  -->
<svg version="1.1" id="Ebene_1" xmlns="http://www.w3.org/2000/svg" xmlns:xlink="http://www.w3.org/1999/xlink" x="0px" y="0px"
	 viewBox="-257 297 96 200" style="enable-background:new -257 297 96 200;" xml:space="preserve">
<style type="text/css">
	.st0{opacity:0.2;}
	.st1{opacity:0.3;}
	.st2{fill:#FFFFFF;}
</style>
<g class="st0">
	<polygon points="-249,493 -249,493 -245,497 -241,493 -241,493 -237,497 -233,493 -233,493 -229,497 -225,493 -225,493 -221,497 
		-217,493 -217.1,493 -213,497 -209,493 -209,493 -205,497 -201,493 -201,493 -197,497 -193,493 -193,493 -189,497 -185,493 
		-185,493 -181,497 -177,493 -177,493 -173,497 -169,493 -169.1,493 -165,497 -161,493 -161,298 -257,298 -257,493 -253,497 	"/>
</g>
<g class="st1">
	<polygon points="-249,493 -249,493 -245,497 -241,493 -241,493 -237,497 -233,493 -233,493 -229,497 -225,493 -225,493 -221,497 
		-217,493 -217.1,493 -213,497 -209,493 -209,493 -205,497 -201,493 -201,493 -197,497 -193,493 -193,493 -189,497 -185,493 
		-185,493 -181,497 -177,493 -177,493 -173,497 -169,493 -169.1,493 -165,497 -161,493 -161,298 -257,298 -257,493 -253,497 	"/>
</g>
<g>
	<polygon class="st2" points="-249,493 -249,493 -245,497 -241,493 -241,493 -237,497 -233,493 -233,493 -229,497 -225,493 
		-225,493 -221,497 -217,493 -217.1,493 -213,497 -209,493 -209,493 -205,497 -201,493 -201,493 -197,497 -193,493 -193,493 
		-189,497 -185,493 -185,493 -181,497 -177,493 -177,493 -173,497 -169,493 -169.1,493 -165,497 -161,493 -161,298 -257,298 
		-257,493 -253,497 	"/>
</g>
<g>
	<path d="M-207.5,448.9L-207.5,448.9l7.7-7.7v2.3c0,0.8,0.6,1.4,1.4,1.4s1.4-0.6,1.4-1.4v-7.1h-7.1c-0.8,0-1.4,0.6-1.4,1.4
		s0.6,1.4,1.4,1.4h2.3l-7.7,7.7h-7.1l0,0h-0.1c-2.4,0-4.6-1-6.3-2.6c-3.5-3.5-3.5-9.4,0-12.9c1.6-1.6,3.7-2.5,5.8-2.6h0.2
		c0.1,0,0.2,0,0.3,0c0.2,0,0.3,0,0.5,0h0.2h0.3h6.9l8.1-8.1h-15c-0.2,0-0.6,0-0.8,0c-0.2,0-0.6,0-0.8,0h-0.2l0,0
		c-4.1,0.2-8.2,2-11.3,5.1c-6.2,6.4-6.5,16.8-0.5,23.5c3.2,3.5,7.4,5.4,11.8,5.7l-5.3,5.3h-4.3c-0.9,0-1.8,0.4-2.4,1l-7,7
		c-0.7,0.7-0.2,1.9,0.8,1.9h3.8c0.6,0,1.1,0.5,1.1,1.1v3.8c0,1,1.2,1.5,1.9,0.8l7-7c0.6-0.6,1-1.5,1-2.4v-4.3l5.3-5.3l0,0
		L-207.5,448.9z"/>
	<path d="M-181.3,455v-32.1c0-0.6-0.2-1.2-0.6-1.6c-0.4-0.4-1-0.6-1.6-0.6h-14l-8.1,8.1h16.2l0,0l0,0V455v0.2v0.2c0,0.3,0,0.7,0,1
		v0.1c-0.2,2.2-1,4.3-2.6,5.8c-1.7,1.7-4,2.6-6.4,2.6c-2.4,0-4.7-1-6.4-2.6c-1.7-1.7-2.6-3.9-2.6-6.2l0,0V452l-7.7,7.7
		c0.7,3,2.2,5.9,4.6,8.3c3.4,3.4,7.8,5,12.2,5s8.8-1.7,12.2-5c3.1-3.1,4.7-7,5-11l0,0l0,0C-181.2,456.3-181.2,455.7-181.3,455"/>
</g>
</svg>
