<?xml version="1.0" encoding="utf-8"?>
<!-- Generator: Adobe Illustrator 19.0.0, SVG Export Plug-In . SVG Version: 6.00 Build 0)  -->
<svg version="1.1" id="Ebene_1" xmlns="http://www.w3.org/2000/svg" xmlns:xlink="http://www.w3.org/1999/xlink" x="0px" y="0px"
	 viewBox="-257 297 96 200" style="enable-background:new -257 297 96 200;" xml:space="preserve">
<style type="text/css">
	.st0{opacity:0.2;}
	.st1{opacity:0.3;}
	.st2{fill:#FFFFFF;}
</style>
<g class="st0">
	<polygon points="-197,493 -197,493 -193,497 -189,493 -189,493 -185,497 -181,493 -181,493 -177,497 -173,493 -173,493 -169,497 
		-165,493 -165.1,493 -161,497 -157,493 -157,493 -153,497 -149,493 -149,493 -145,497 -141,493 -141,493 -137,497 -133,493 
		-133,493 -129,497 -125,493 -125,493 -121,497 -117,493 -117.1,493 -113,497 -109,493 -109,298 -205,298 -205,493 -201,497 	"/>
</g>
<g class="st1">
	<polygon points="-197,492.3 -197,492.3 -193,496.3 -189,492.3 -189,492.3 -185,496.3 -181,492.3 -181,492.3 -177,496.3 -173,492.3 
		-173,492.3 -169,496.3 -165,492.3 -165.1,492.3 -161,496.3 -157,492.3 -157,492.3 -153,496.3 -149,492.3 -149,492.3 -145,496.3 
		-141,492.3 -141,492.3 -137,496.3 -133,492.3 -133,492.3 -129,496.3 -125,492.3 -125,492.3 -121,496.3 -117,492.3 -117.1,492.3 
		-113,496.3 -109,492.3 -109,297.3 -205,297.3 -205,492.3 -201,496.3 	"/>
</g>
<g>
	<polygon class="st2" points="-197,492 -197,492 -193,496 -189,492 -189,492 -185,496 -181,492 -181,492 -177,496 -173,492 
		-173,492 -169,496 -165,492 -165.1,492 -161,496 -157,492 -157,492 -153,496 -149,492 -149,492 -145,496 -141,492 -141,492 
		-137,496 -133,492 -133,492 -129,496 -125,492 -125,492 -121,496 -117,492 -117.1,492 -113,496 -109,492 -109,297 -205,297 
		-205,492 -201,496 	"/>
</g>
<image style="overflow:visible;" width="297" height="90" xlink:href="../../wedding-invite/img/orange-red-scroll-md.png"  transform="matrix(0.3152 0 0 0.4049 -202.6 431.617)">
</image>
</svg>
